<svg xmlns="http://www.w3.org/2000/svg" xmlns:xlink="http://www.w3.org/1999/xlink" width="321" zoomAndPan="magnify" viewBox="0 0 240.75 141.750002" height="188" preserveAspectRatio="xMidYMid meet" version="1.0"><defs><g/><clipPath id="c16b3ce7db"><path d="M 0.0859375 0 L 240.414062 0 L 240.414062 141.5 L 0.0859375 141.5 Z M 0.0859375 0 " clip-rule="nonzero"/></clipPath></defs><g clip-path="url(#c16b3ce7db)"><path fill="#ffffff" d="M 0.0859375 0 L 240.664062 0 L 240.664062 438.433594 L 0.0859375 438.433594 Z M 0.0859375 0 " fill-opacity="1" fill-rule="nonzero"/><path fill="#ffffff" d="M 0.0859375 0 L 240.664062 0 L 240.664062 141.648438 L 0.0859375 141.648438 Z M 0.0859375 0 " fill-opacity="1" fill-rule="nonzero"/><path fill="#000000" d="M 0.0859375 0 L 240.664062 0 L 240.664062 141.648438 L 0.0859375 141.648438 Z M 0.0859375 0 " fill-opacity="1" fill-rule="nonzero"/></g><g fill="#ffffff" fill-opacity="1"><g transform="translate(108.182128, 95.144348)"><g><path d="M 8.53125 0 L 8.53125 -62.703125 L 46.5 -62.703125 L 45.5625 -56.359375 L 27.9375 -59.296875 C 24.84375 -59.296875 21.4375 -58.757812 17.71875 -57.6875 L 17.71875 -34.671875 L 38.734375 -34.671875 L 38.734375 -31.0625 L 17.71875 -31.0625 L 17.71875 -3.40625 L 47.078125 -6.34375 L 46.125 0 Z M 8.53125 0 "/></g></g></g><g fill="#ffffff" fill-opacity="1"><g transform="translate(134.642045, 32.793566)"><g><path d="M -17.984375 0 L -8.4375 0 L -8.4375 62.015625 L -17.984375 62.015625 L -17.984375 31.46875 L -46.921875 62.015625 L -53.109375 62.015625 L -23.796875 33.15625 L -57.046875 0 L -45.0625 -1.21875 L -17.984375 30.53125 Z M -17.984375 0 "/></g></g></g><g fill="#ffffff" fill-opacity="1"><g transform="translate(115.805323, 92.89322)"><g><path d="M 8.40625 -14.140625 L 8.40625 0 L 4.03125 0 L 4.03125 -29.609375 L 13.6875 -29.609375 C 16.695312 -29.609375 19.164062 -28.9375 21.09375 -27.59375 C 23.019531 -26.257812 23.984375 -24.492188 23.984375 -22.296875 C 23.984375 -20.109375 23.210938 -18.378906 21.671875 -17.109375 C 20.140625 -15.835938 18.0625 -14.96875 15.4375 -14.5 L 27.421875 0 L 22.234375 0.625 L 11.859375 -14.140625 Z M 8.40625 -15.484375 L 11.265625 -15.484375 C 16.640625 -15.484375 19.328125 -17.597656 19.328125 -21.828125 C 19.328125 -22.546875 19.144531 -23.351562 18.78125 -24.25 C 18.101562 -26.125 16.644531 -27.359375 14.40625 -27.953125 C 12.375 -27.953125 10.375 -27.703125 8.40625 -27.203125 Z M 8.40625 -15.484375 "/></g></g></g><g fill="#ffffff" fill-opacity="1"><g transform="translate(110.547913, 26.719902)"><g><path d="M 7.25 -0.421875 C 6.351562 -1.316406 5.90625 -2.410156 5.90625 -3.703125 C 5.90625 -5.003906 6.351562 -6.117188 7.25 -7.046875 C 8.144531 -7.972656 9.238281 -8.4375 10.53125 -8.4375 C 11.832031 -8.4375 12.945312 -7.972656 13.875 -7.046875 C 14.800781 -6.117188 15.265625 -5.003906 15.265625 -3.703125 C 15.265625 -2.410156 14.800781 -1.316406 13.875 -0.421875 C 12.945312 0.472656 11.832031 0.921875 10.53125 0.921875 C 9.238281 0.921875 8.144531 0.472656 7.25 -0.421875 Z M 7.25 -0.421875 "/></g></g></g><path stroke-linecap="butt" transform="matrix(0.000000000000000023, -0.37706, 0.377765, 0.000000000000000023, 92.975241, 86.099721)" fill="none" stroke-linejoin="miter" d="M -0.00488461 3.994902 L 117.226138 3.994902 " stroke="#ffffff" stroke-width="8" stroke-opacity="1" stroke-miterlimit="4"/><g fill="#ffffff" fill-opacity="1"><g transform="translate(89.782254, 116.016409)"><g><path d="M 12.757812 -10.25 C 9.460938 -9.878906 6.125 -9.476562 2.894531 -8.734375 C 2.492188 -8.632812 2.085938 -8.535156 1.683594 -8.398438 C 1.480469 -8.332031 1.277344 -8.265625 1.078125 -8.164062 C 0.960938 -8.097656 0.859375 -8.046875 0.742188 -7.945312 C 0.691406 -7.878906 0.621094 -7.828125 0.589844 -7.640625 C 0.574219 -7.507812 0.621094 -7.421875 0.65625 -7.339844 C 0.839844 -7.050781 1.042969 -6.96875 1.246094 -6.832031 C 1.429688 -6.734375 1.632812 -6.632812 1.835938 -6.5625 C 1.9375 -6.515625 2.054688 -6.480469 2.171875 -6.429688 C 1.71875 -5.671875 1.296875 -4.898438 0.941406 -4.105469 C 0.875 -3.972656 0.824219 -3.835938 0.757812 -3.703125 C 0.523438 -3.617188 0.269531 -3.550781 0.0351562 -3.46875 C 0.015625 -3.46875 0 -3.449219 0.015625 -3.417969 C 0.015625 -3.398438 0.0351562 -3.382812 0.0507812 -3.398438 C 0.253906 -3.417969 0.472656 -3.449219 0.671875 -3.484375 C 0.351562 -2.726562 0.015625 -1.597656 -0.015625 -0.773438 C -0.0351562 -0.574219 -0.0351562 -0.371094 -0.015625 -0.152344 C 0.0664062 0.402344 0.335938 0.742188 0.875 0.910156 C 1.09375 0.960938 1.296875 0.976562 1.496094 0.992188 C 3.71875 0.992188 7.070312 -0.371094 9.089844 -1.261719 C 9.105469 -1.261719 9.121094 -1.277344 9.105469 -1.3125 C 9.105469 -1.328125 9.089844 -1.328125 9.070312 -1.328125 C 7.070312 -0.589844 3.972656 0.472656 1.835938 0.472656 C 1.734375 0.472656 1.632812 0.472656 1.53125 0.453125 C 1.195312 0.4375 0.824219 0.320312 0.722656 0.167969 C 0.589844 -0.015625 0.589844 -0.371094 0.621094 -0.707031 C 0.671875 -1.058594 0.773438 -1.398438 0.875 -1.75 C 1.058594 -2.390625 1.3125 -3.011719 1.546875 -3.636719 C 3.738281 -4.023438 5.90625 -4.460938 8.0625 -4.980469 C 8.195312 -5.015625 8.316406 -5.117188 8.347656 -5.269531 C 8.382812 -5.488281 8.246094 -5.6875 8.046875 -5.722656 L 8.027344 -5.722656 C 6.414062 -6.027344 4.78125 -6.3125 3.199219 -6.734375 C 3.082031 -6.765625 2.960938 -6.800781 2.828125 -6.832031 C 2.980469 -7.21875 3.128906 -7.609375 3.28125 -7.976562 C 3.300781 -7.996094 3.28125 -8.011719 3.28125 -8.027344 C 3.265625 -8.046875 3.230469 -8.046875 3.214844 -8.027344 C 2.960938 -7.675781 2.726562 -7.304688 2.492188 -6.953125 C 2.339844 -7 2.1875 -7.035156 2.035156 -7.101562 C 1.851562 -7.171875 1.667969 -7.238281 1.496094 -7.339844 C 1.363281 -7.40625 1.195312 -7.507812 1.144531 -7.589844 C 1.9375 -8.382812 10.773438 -9.847656 12.757812 -10.183594 C 12.792969 -10.183594 12.792969 -10.199219 12.792969 -10.214844 C 12.792969 -10.234375 12.773438 -10.25 12.757812 -10.25 Z M 6.246094 -5.300781 C 4.710938 -4.898438 3.199219 -4.460938 1.683594 -3.988281 C 1.984375 -4.746094 2.289062 -5.503906 2.609375 -6.277344 C 3.769531 -5.839844 5.03125 -5.570312 6.246094 -5.300781 Z M 1.109375 -7.558594 C 1.109375 -7.539062 1.109375 -7.558594 1.109375 -7.558594 Z M 1.109375 -7.558594 "/></g></g></g><g fill="#ffffff" fill-opacity="1"><g transform="translate(99.810351, 116.016409)"><g><path d="M 3.164062 -0.351562 C 2.980469 -0.320312 2.792969 -0.285156 2.625 -0.285156 C 2.472656 -0.285156 2.339844 -0.304688 2.238281 -0.351562 C 2.003906 -0.472656 2.003906 -0.722656 2.035156 -1.027344 L 2.054688 -1.277344 C 2.070312 -1.378906 2.085938 -1.449219 2.054688 -1.617188 C 2.054688 -1.667969 2.035156 -1.71875 1.96875 -1.800781 C 1.917969 -1.886719 1.765625 -1.953125 1.667969 -1.953125 C 1.582031 -1.953125 1.53125 -1.9375 1.464844 -1.917969 C 1.449219 -1.902344 1.464844 -1.917969 1.414062 -1.902344 L 1.398438 -1.902344 C 1.347656 -1.886719 1.277344 -1.867188 1.210938 -1.851562 C 1.042969 -1.816406 0.839844 -1.800781 0.621094 -1.765625 C 0.621094 -1.800781 0.621094 -1.851562 0.605469 -1.886719 C 0.589844 -1.9375 0.554688 -2.019531 0.503906 -2.054688 L 0.488281 -2.054688 C 0.453125 -2.054688 0.4375 -2.035156 0.4375 -2.019531 C 0.4375 -1.953125 0.351562 -1.851562 0.304688 -1.816406 C 0.269531 -1.785156 0.234375 -1.75 0.203125 -1.734375 C 0.167969 -1.699219 0.132812 -1.667969 0.117188 -1.648438 C 0.0664062 -1.632812 0.0507812 -1.597656 0.015625 -1.566406 C -0.015625 -1.464844 0.015625 -1.347656 0.117188 -1.3125 L 0.253906 -1.246094 C 0.472656 -1.128906 0.722656 -1.058594 0.976562 -1.058594 C 1.128906 -1.058594 1.261719 -1.078125 1.414062 -1.128906 C 1.449219 -1.128906 1.464844 -1.144531 1.480469 -1.160156 L 1.496094 -1.027344 C 1.515625 -0.859375 1.53125 -0.65625 1.617188 -0.453125 C 1.71875 -0.253906 1.917969 -0.0664062 2.136719 -0.0351562 C 2.1875 -0.015625 2.253906 -0.015625 2.304688 -0.015625 C 2.574219 -0.015625 2.945312 -0.152344 3.179688 -0.285156 C 3.199219 -0.285156 3.199219 -0.304688 3.199219 -0.320312 C 3.199219 -0.335938 3.179688 -0.351562 3.164062 -0.351562 Z M 1.464844 -1.414062 C 1.449219 -1.429688 1.449219 -1.449219 1.449219 -1.449219 C 1.449219 -1.464844 1.449219 -1.449219 1.464844 -1.414062 Z M 1.464844 -1.414062 "/></g></g></g><g fill="#ffffff" fill-opacity="1"><g transform="translate(103.10818, 116.016409)"><g><path d="M 1.816406 -0.371094 C 1.71875 -0.371094 1.597656 -0.351562 1.496094 -0.351562 C 1.230469 -0.351562 0.890625 -0.402344 0.859375 -0.722656 C 0.839844 -0.890625 0.925781 -1.109375 0.890625 -1.328125 C 0.839844 -1.566406 0.808594 -1.816406 0.589844 -2.085938 C 0.574219 -2.105469 0.539062 -2.105469 0.523438 -2.070312 C 0.320312 -1.851562 0.21875 -1.632812 0.152344 -1.363281 C 0.0859375 -1.109375 0.167969 -0.824219 0.304688 -0.539062 C 0.421875 -0.167969 0.757812 -0.0351562 1.109375 -0.0351562 C 1.398438 -0.0664062 1.632812 -0.167969 1.851562 -0.304688 C 1.851562 -0.304688 1.867188 -0.320312 1.867188 -0.335938 C 1.867188 -0.351562 1.835938 -0.371094 1.816406 -0.371094 Z M 0.539062 -3.046875 C 0.839844 -3.082031 0.960938 -3.113281 1.027344 -3.148438 C 1.109375 -3.199219 0.960938 -3.230469 0.925781 -3.265625 C 0.875 -3.300781 0.824219 -3.332031 0.757812 -3.367188 C 0.691406 -3.417969 0.621094 -3.449219 0.539062 -3.484375 C 0.503906 -3.5 0.472656 -3.5 0.4375 -3.484375 C 0.335938 -3.449219 0.285156 -3.417969 0.21875 -3.367188 C 0.152344 -3.332031 0.101562 -3.300781 0.0507812 -3.265625 C 0 -3.230469 -0.132812 -3.199219 -0.0507812 -3.148438 C 0.015625 -3.113281 0.132812 -3.082031 0.4375 -3.046875 C 0.472656 -3.046875 0.503906 -3.046875 0.539062 -3.046875 Z M 0.539062 -3.046875 "/></g></g></g><g fill="#ffffff" fill-opacity="1"><g transform="translate(105.076782, 116.016409)"><g><path d="M 4.226562 -0.589844 C 4.023438 -0.574219 3.804688 -0.554688 3.601562 -0.554688 C 3.347656 -0.554688 2.625 -0.605469 2.507812 -0.875 C 2.507812 -0.910156 2.507812 -0.910156 2.558594 -0.976562 C 2.59375 -1.027344 2.660156 -1.09375 2.726562 -1.144531 C 2.761719 -1.179688 2.8125 -1.195312 2.84375 -1.230469 C 2.894531 -1.246094 2.996094 -1.328125 3.046875 -1.414062 C 3.164062 -1.566406 3.179688 -1.785156 3.148438 -1.953125 C 3.0625 -2.289062 2.84375 -2.542969 2.523438 -2.675781 C 2.421875 -2.710938 2.324219 -2.726562 2.222656 -2.726562 C 2.15625 -2.726562 2.070312 -2.710938 2.003906 -2.691406 C 1.816406 -2.660156 1.667969 -2.558594 1.566406 -2.457031 C 1.179688 -2.121094 1.011719 -1.597656 0.859375 -1.128906 C 0.742188 -1.582031 0.707031 -2.085938 0.707031 -2.558594 C 1.195312 -3.164062 1.597656 -3.855469 1.953125 -4.542969 C 2.40625 -5.335938 2.691406 -6.261719 2.542969 -7.21875 C 2.492188 -7.472656 2.40625 -7.707031 2.222656 -7.925781 C 2.085938 -8.113281 1.835938 -8.230469 1.582031 -8.230469 C 1.53125 -8.230469 1.464844 -8.230469 1.414062 -8.214844 C 1.230469 -8.164062 1.128906 -8.046875 1.042969 -7.945312 C 0.960938 -7.828125 0.890625 -7.726562 0.839844 -7.609375 C 0.386719 -6.765625 0.203125 -5.167969 0.117188 -4.242188 C 0.0351562 -3.332031 -0.015625 -2.421875 0.0507812 -1.496094 C 0.0664062 -1.261719 0.101562 -1.027344 0.167969 -0.773438 C 0.183594 -0.640625 0.234375 -0.523438 0.304688 -0.371094 C 0.351562 -0.285156 0.402344 -0.203125 0.539062 -0.101562 C 0.574219 -0.0859375 0.589844 -0.0664062 0.65625 -0.0351562 C 0.691406 -0.0351562 0.722656 -0.015625 0.757812 -0.015625 L 0.960938 -0.015625 C 1.042969 -0.0351562 1.09375 -0.0664062 1.128906 -0.101562 C 1.277344 -0.203125 1.296875 -0.285156 1.347656 -0.351562 C 1.378906 -0.421875 1.414062 -0.472656 1.429688 -0.539062 C 1.480469 -0.65625 1.53125 -0.773438 1.566406 -0.875 C 1.648438 -1.09375 1.71875 -1.3125 1.785156 -1.515625 C 1.851562 -1.765625 2.019531 -2.054688 2.304688 -2.054688 C 2.472656 -2.019531 2.574219 -1.867188 2.574219 -1.71875 C 2.507812 -1.648438 2.457031 -1.597656 2.390625 -1.53125 C 2.289062 -1.449219 2.203125 -1.347656 2.121094 -1.195312 C 2.054688 -1.058594 2.019531 -0.824219 2.136719 -0.65625 C 2.238281 -0.503906 2.375 -0.421875 2.492188 -0.371094 C 2.625 -0.335938 2.742188 -0.304688 2.878906 -0.285156 C 3.382812 -0.285156 3.769531 -0.335938 4.242188 -0.523438 C 4.257812 -0.523438 4.273438 -0.539062 4.273438 -0.554688 C 4.257812 -0.589844 4.242188 -0.589844 4.226562 -0.589844 Z M 0.707031 -4.207031 C 0.757812 -5.082031 0.839844 -5.976562 1.042969 -6.816406 C 1.109375 -7.019531 1.160156 -7.238281 1.246094 -7.421875 C 1.328125 -7.609375 1.449219 -7.792969 1.53125 -7.808594 C 1.699219 -7.808594 1.816406 -7.792969 1.9375 -7.660156 C 2.054688 -7.539062 2.121094 -7.355469 2.171875 -7.152344 C 2.273438 -6.75 2.253906 -6.3125 2.171875 -5.875 C 2.019531 -4.929688 1.230469 -3.484375 0.691406 -2.726562 C 0.671875 -3.214844 0.691406 -3.703125 0.707031 -4.207031 Z M 0.707031 -4.207031 "/></g></g></g><g fill="#ffffff" fill-opacity="1"><g transform="translate(109.451454, 116.016409)"><g><path d="M 4.476562 -0.621094 C 4.242188 -0.554688 3.972656 -0.488281 3.738281 -0.488281 C 3.265625 -0.488281 3.011719 -0.722656 2.878906 -1.179688 L 2.84375 -1.328125 C 2.84375 -1.328125 2.84375 -1.328125 2.8125 -1.414062 C 2.777344 -1.464844 2.691406 -1.496094 2.640625 -1.515625 C 2.609375 -1.515625 2.574219 -1.515625 2.542969 -1.515625 C 2.390625 -1.464844 2.324219 -1.414062 2.238281 -1.378906 C 2.070312 -1.277344 1.917969 -1.195312 1.765625 -1.09375 C 1.464844 -0.910156 1.160156 -0.722656 0.875 -0.65625 C 0.824219 -0.640625 0.773438 -0.640625 0.722656 -0.640625 C 0.671875 -0.640625 0.707031 -0.640625 0.722656 -0.640625 C 0.742188 -0.621094 0.722656 -0.65625 0.722656 -0.707031 C 0.722656 -0.742188 0.742188 -0.773438 0.757812 -0.824219 C 0.824219 -0.992188 1.042969 -1.230469 1.296875 -1.398438 C 1.53125 -1.597656 1.816406 -1.75 2.121094 -1.851562 C 2.253906 -1.886719 2.390625 -1.917969 2.523438 -1.917969 C 2.691406 -1.917969 2.828125 -1.886719 2.960938 -1.734375 C 2.980469 -1.71875 2.980469 -1.71875 2.996094 -1.71875 C 3.011719 -1.71875 3.03125 -1.734375 3.03125 -1.75 L 3.03125 -1.765625 C 3.011719 -1.953125 2.863281 -2.15625 2.660156 -2.238281 C 2.457031 -2.339844 2.253906 -2.355469 2.035156 -2.355469 C 1.246094 -2.355469 0.285156 -1.816406 0.0507812 -1.027344 C 0.015625 -0.910156 0 -0.757812 0.0351562 -0.605469 C 0.0664062 -0.488281 0.101562 -0.335938 0.234375 -0.203125 C 0.371094 -0.0507812 0.574219 0 0.722656 0 C 0.859375 -0.015625 0.976562 -0.0507812 1.078125 -0.0859375 C 1.464844 -0.253906 1.75 -0.488281 2.035156 -0.691406 C 2.1875 -0.808594 2.324219 -0.910156 2.457031 -1.011719 C 2.492188 -1.027344 2.507812 -1.042969 2.523438 -1.058594 L 2.542969 -1.042969 C 2.625 -0.875 2.726562 -0.691406 2.878906 -0.554688 C 3.011719 -0.402344 3.230469 -0.304688 3.417969 -0.285156 C 3.835938 -0.285156 4.105469 -0.371094 4.492188 -0.554688 C 4.511719 -0.554688 4.527344 -0.574219 4.511719 -0.589844 C 4.511719 -0.621094 4.492188 -0.621094 4.476562 -0.621094 Z M 2.472656 -1.210938 C 2.472656 -1.230469 2.472656 -1.230469 2.472656 -1.210938 Z M 2.472656 -1.210938 "/></g></g></g><g fill="#ffffff" fill-opacity="1"><g transform="translate(113.826126, 116.016409)"><g/></g></g><g fill="#ffffff" fill-opacity="1"><g transform="translate(117.51095, 116.016409)"><g><path d="M -0.808594 -10.285156 C -2.273438 -10.285156 -5.503906 -10.199219 -6.664062 -9.171875 C -6.800781 -9.039062 -6.953125 -8.871094 -7.019531 -8.585938 C -7.050781 -8.382812 -7.035156 -8.195312 -7 -8.011719 C -6.5625 -5.707031 -1.902344 -1.667969 0.234375 -0.101562 L 0.234375 -0.0859375 C 0.285156 -0.0507812 0.335938 -0.0351562 0.386719 -0.0351562 C 0.523438 -0.0351562 0.65625 -0.132812 0.65625 -0.285156 L 0.808594 -4.460938 C 0.839844 -5.855469 0.890625 -7.253906 0.910156 -8.632812 C 0.910156 -8.667969 0.910156 -8.667969 0.875 -8.683594 C 0.859375 -8.683594 0.839844 -8.667969 0.839844 -8.652344 C 0.707031 -7.253906 0.589844 -5.875 0.453125 -4.476562 L 0.167969 -0.839844 C -1.378906 -2.15625 -5.890625 -6.09375 -6.261719 -8.144531 C -6.277344 -8.265625 -6.277344 -8.363281 -6.261719 -8.464844 C -6.261719 -8.464844 -6.210938 -8.550781 -6.144531 -8.601562 C -5.183594 -9.460938 -1.582031 -9.578125 -0.335938 -9.578125 C 2.523438 -9.578125 7.238281 -9.191406 9.695312 -7.488281 C 10.214844 -7.101562 10.6875 -6.5625 10.6875 -5.890625 C 10.6875 -5.722656 10.6875 -5.621094 10.652344 -5.488281 C 10.285156 -2.625 3.667969 -0.503906 1.414062 0.203125 C -3.097656 1.546875 -7.742188 2.421875 -12.40625 3.128906 C -12.421875 3.128906 -12.4375 3.148438 -12.421875 3.164062 C -12.421875 3.179688 -12.40625 3.199219 -12.386719 3.199219 C -7.707031 2.574219 -3.046875 1.785156 1.515625 0.523438 C 4.125 -0.253906 10.671875 -2.238281 11.140625 -5.402344 C 11.175781 -5.554688 11.191406 -5.738281 11.191406 -5.875 C 11.191406 -9.644531 1.867188 -10.285156 -0.808594 -10.285156 Z M -0.808594 -10.285156 "/></g></g></g><g fill="#ffffff" fill-opacity="1"><g transform="translate(127.69048, 116.016409)"><g><path d="M 4.476562 -0.621094 C 4.242188 -0.554688 3.972656 -0.488281 3.738281 -0.488281 C 3.265625 -0.488281 3.011719 -0.722656 2.878906 -1.179688 L 2.84375 -1.328125 C 2.84375 -1.328125 2.84375 -1.328125 2.8125 -1.414062 C 2.777344 -1.464844 2.691406 -1.496094 2.640625 -1.515625 C 2.609375 -1.515625 2.574219 -1.515625 2.542969 -1.515625 C 2.390625 -1.464844 2.324219 -1.414062 2.238281 -1.378906 C 2.070312 -1.277344 1.917969 -1.195312 1.765625 -1.09375 C 1.464844 -0.910156 1.160156 -0.722656 0.875 -0.65625 C 0.824219 -0.640625 0.773438 -0.640625 0.722656 -0.640625 C 0.671875 -0.640625 0.707031 -0.640625 0.722656 -0.640625 C 0.742188 -0.621094 0.722656 -0.65625 0.722656 -0.707031 C 0.722656 -0.742188 0.742188 -0.773438 0.757812 -0.824219 C 0.824219 -0.992188 1.042969 -1.230469 1.296875 -1.398438 C 1.53125 -1.597656 1.816406 -1.75 2.121094 -1.851562 C 2.253906 -1.886719 2.390625 -1.917969 2.523438 -1.917969 C 2.691406 -1.917969 2.828125 -1.886719 2.960938 -1.734375 C 2.980469 -1.71875 2.980469 -1.71875 2.996094 -1.71875 C 3.011719 -1.71875 3.03125 -1.734375 3.03125 -1.75 L 3.03125 -1.765625 C 3.011719 -1.953125 2.863281 -2.15625 2.660156 -2.238281 C 2.457031 -2.339844 2.253906 -2.355469 2.035156 -2.355469 C 1.246094 -2.355469 0.285156 -1.816406 0.0507812 -1.027344 C 0.015625 -0.910156 0 -0.757812 0.0351562 -0.605469 C 0.0664062 -0.488281 0.101562 -0.335938 0.234375 -0.203125 C 0.371094 -0.0507812 0.574219 0 0.722656 0 C 0.859375 -0.015625 0.976562 -0.0507812 1.078125 -0.0859375 C 1.464844 -0.253906 1.75 -0.488281 2.035156 -0.691406 C 2.1875 -0.808594 2.324219 -0.910156 2.457031 -1.011719 C 2.492188 -1.027344 2.507812 -1.042969 2.523438 -1.058594 L 2.542969 -1.042969 C 2.625 -0.875 2.726562 -0.691406 2.878906 -0.554688 C 3.011719 -0.402344 3.230469 -0.304688 3.417969 -0.285156 C 3.835938 -0.285156 4.105469 -0.371094 4.492188 -0.554688 C 4.511719 -0.554688 4.527344 -0.574219 4.511719 -0.589844 C 4.511719 -0.621094 4.492188 -0.621094 4.476562 -0.621094 Z M 2.472656 -1.210938 C 2.472656 -1.230469 2.472656 -1.230469 2.472656 -1.210938 Z M 2.472656 -1.210938 "/></g></g></g><g fill="#ffffff" fill-opacity="1"><g transform="translate(132.065153, 116.016409)"><g><path d="M 3.835938 -0.253906 C 3.214844 -0.320312 2.894531 -0.554688 2.640625 -1.128906 C 2.542969 -1.378906 2.457031 -1.648438 2.339844 -1.9375 C 2.273438 -2.085938 2.238281 -2.222656 2.105469 -2.421875 C 2.054688 -2.472656 2.003906 -2.558594 1.851562 -2.625 C 1.816406 -2.640625 1.765625 -2.660156 1.71875 -2.660156 C 1.683594 -2.660156 1.648438 -2.640625 1.617188 -2.640625 C 1.546875 -2.625 1.496094 -2.59375 1.464844 -2.558594 C 1.328125 -2.457031 1.296875 -2.375 1.230469 -2.289062 L 0.808594 -1.464844 C 0.65625 -1.195312 0.503906 -0.941406 0.351562 -0.691406 L 0.304688 -0.605469 L 0.285156 -0.640625 L 0.203125 -1.566406 C 0.203125 -1.582031 0.183594 -1.582031 0.167969 -1.597656 C 0.152344 -1.597656 0.132812 -1.582031 0.132812 -1.566406 C 0.101562 -1.246094 0.0859375 -0.941406 0.0664062 -0.640625 L 0.0507812 -0.402344 L 0.0507812 -0.21875 C 0.0507812 -0.203125 0.0507812 -0.183594 0.0664062 -0.167969 L 0.0664062 -0.132812 L 0.0859375 -0.132812 C 0.0859375 -0.132812 0.0859375 -0.117188 0.101562 -0.101562 C 0.132812 -0.0664062 0.167969 -0.0507812 0.21875 -0.0507812 C 0.234375 -0.0507812 0.253906 -0.0507812 0.269531 -0.0664062 C 0.285156 -0.0664062 0.320312 -0.0859375 0.335938 -0.117188 L 0.335938 -0.132812 C 0.351562 -0.152344 0.351562 -0.167969 0.351562 -0.167969 L 0.640625 -0.472656 C 0.839844 -0.707031 1.042969 -0.960938 1.210938 -1.210938 L 1.480469 -1.597656 C 1.53125 -1.667969 1.582031 -1.734375 1.617188 -1.816406 C 1.632812 -1.785156 1.632812 -1.75 1.648438 -1.71875 C 1.835938 -0.941406 2.289062 0 3.214844 0 C 3.449219 0 3.667969 -0.0664062 3.871094 -0.203125 C 3.871094 -0.234375 3.855469 -0.253906 3.835938 -0.253906 Z M 0.335938 -0.253906 C 0.351562 -0.234375 0.335938 -0.253906 0.335938 -0.253906 Z M 0.371094 -0.183594 C 0.351562 -0.183594 0.351562 -0.183594 0.351562 -0.183594 C 0.351562 -0.183594 0.371094 -0.183594 0.371094 -0.183594 C 0.371094 -0.203125 0.371094 -0.21875 0.371094 -0.183594 Z M 1.785156 -2.035156 C 1.800781 -2.054688 1.816406 -2.054688 1.800781 -2.054688 C 1.816406 -2.035156 1.800781 -2.035156 1.785156 -2.035156 Z M 1.785156 -2.035156 "/></g></g></g><g fill="#ffffff" fill-opacity="1"><g transform="translate(136.036012, 116.016409)"><g><path d="M 1.816406 -0.371094 C 1.71875 -0.371094 1.597656 -0.351562 1.496094 -0.351562 C 1.230469 -0.351562 0.890625 -0.402344 0.859375 -0.722656 C 0.839844 -0.890625 0.925781 -1.109375 0.890625 -1.328125 C 0.839844 -1.566406 0.808594 -1.816406 0.589844 -2.085938 C 0.574219 -2.105469 0.539062 -2.105469 0.523438 -2.070312 C 0.320312 -1.851562 0.21875 -1.632812 0.152344 -1.363281 C 0.0859375 -1.109375 0.167969 -0.824219 0.304688 -0.539062 C 0.421875 -0.167969 0.757812 -0.0351562 1.109375 -0.0351562 C 1.398438 -0.0664062 1.632812 -0.167969 1.851562 -0.304688 C 1.851562 -0.304688 1.867188 -0.320312 1.867188 -0.335938 C 1.867188 -0.351562 1.835938 -0.371094 1.816406 -0.371094 Z M 0.539062 -3.046875 C 0.839844 -3.082031 0.960938 -3.113281 1.027344 -3.148438 C 1.109375 -3.199219 0.960938 -3.230469 0.925781 -3.265625 C 0.875 -3.300781 0.824219 -3.332031 0.757812 -3.367188 C 0.691406 -3.417969 0.621094 -3.449219 0.539062 -3.484375 C 0.503906 -3.5 0.472656 -3.5 0.4375 -3.484375 C 0.335938 -3.449219 0.285156 -3.417969 0.21875 -3.367188 C 0.152344 -3.332031 0.101562 -3.300781 0.0507812 -3.265625 C 0 -3.230469 -0.132812 -3.199219 -0.0507812 -3.148438 C 0.015625 -3.113281 0.132812 -3.082031 0.4375 -3.046875 C 0.472656 -3.046875 0.503906 -3.046875 0.539062 -3.046875 Z M 0.539062 -3.046875 "/></g></g></g><g fill="#ffffff" fill-opacity="1"><g transform="translate(138.004613, 116.016409)"><g><path d="M 3.71875 -1.09375 C 3.71875 -1.109375 3.6875 -1.109375 3.667969 -1.09375 C 3.332031 -0.824219 2.558594 -0.773438 2.136719 -0.742188 C 2.019531 -0.742188 1.917969 -0.722656 1.800781 -0.722656 C 1.648438 -0.722656 1.496094 -0.742188 1.363281 -0.757812 C 1.277344 -0.757812 1.210938 -0.773438 1.128906 -0.792969 C 1.515625 -0.960938 1.9375 -1.144531 2.253906 -1.429688 C 2.324219 -1.496094 2.390625 -1.566406 2.441406 -1.648438 C 2.507812 -1.734375 2.558594 -1.785156 2.59375 -1.9375 L 2.59375 -1.953125 C 2.59375 -2.1875 2.542969 -2.375 2.304688 -2.492188 C 2.171875 -2.542969 2.054688 -2.574219 1.9375 -2.574219 C 1.867188 -2.574219 1.816406 -2.558594 1.765625 -2.558594 C 1.179688 -2.492188 0.472656 -2.085938 0.167969 -1.566406 C 0.0664062 -1.414062 0 -1.195312 0.015625 -0.976562 C 0.0351562 -0.757812 0.152344 -0.523438 0.304688 -0.371094 C 0.621094 -0.0859375 0.992188 -0.015625 1.296875 0 C 2.003906 0 2.441406 -0.0859375 3.082031 -0.402344 C 3.214844 -0.488281 3.347656 -0.574219 3.46875 -0.671875 C 3.585938 -0.773438 3.6875 -0.910156 3.738281 -1.058594 C 3.738281 -1.078125 3.738281 -1.09375 3.71875 -1.09375 Z M 0.671875 -1.058594 C 0.65625 -1.109375 0.671875 -1.179688 0.707031 -1.277344 C 0.792969 -1.464844 0.976562 -1.648438 1.160156 -1.800781 C 1.378906 -1.953125 1.617188 -2.070312 1.835938 -2.136719 C 1.902344 -2.15625 1.953125 -2.15625 2.003906 -2.15625 C 2.15625 -2.15625 2.203125 -2.136719 2.238281 -1.96875 C 2.238281 -1.9375 2.203125 -1.867188 2.1875 -1.816406 C 2.136719 -1.75 2.105469 -1.699219 2.054688 -1.632812 C 1.953125 -1.515625 1.835938 -1.398438 1.699219 -1.296875 C 1.480469 -1.128906 1.230469 -0.976562 0.976562 -0.824219 C 0.890625 -0.859375 0.824219 -0.875 0.773438 -0.910156 C 0.722656 -0.960938 0.691406 -0.976562 0.671875 -1.058594 Z M 0.671875 -1.058594 "/></g></g></g><g fill="#ffffff" fill-opacity="1"><g transform="translate(141.85769, 116.016409)"><g><path d="M 3.519531 -7.1875 C 3.382812 -7.660156 3.03125 -7.894531 2.542969 -7.894531 L 2.507812 -7.894531 C 1.617188 -7.808594 0.890625 -6.632812 0.574219 -5.875 C 0.21875 -5.050781 0.0351562 -4.15625 0.0351562 -3.28125 C 0.015625 -2.828125 0.0507812 -2.390625 0.152344 -1.953125 C 0.402344 -0.691406 1.144531 -0.015625 2.40625 -0.015625 C 2.660156 -0.015625 2.910156 -0.0507812 3.148438 -0.0859375 C 3.164062 -0.0859375 3.179688 -0.101562 3.179688 -0.117188 C 3.179688 -0.152344 3.164062 -0.167969 3.128906 -0.152344 C 2.980469 -0.152344 2.8125 -0.132812 2.660156 -0.132812 C 1.363281 -0.132812 0.640625 -0.757812 0.488281 -2.019531 C 0.421875 -2.421875 0.421875 -2.84375 0.4375 -3.265625 C 0.503906 -4.410156 0.960938 -5.773438 1.734375 -6.648438 C 1.96875 -6.933594 2.304688 -7.171875 2.542969 -7.1875 C 2.625 -7.171875 2.691406 -7.152344 2.726562 -7.121094 C 2.742188 -7.101562 2.761719 -7.070312 2.777344 -6.984375 C 2.828125 -6.816406 2.8125 -6.546875 2.777344 -6.296875 C 2.542969 -4.394531 2.121094 -3.484375 0.960938 -1.886719 C 0.941406 -1.867188 0.941406 -1.851562 0.960938 -1.851562 C 0.976562 -1.835938 0.992188 -1.816406 1.011719 -1.835938 C 2.507812 -2.980469 3.316406 -4.359375 3.535156 -6.210938 C 3.566406 -6.496094 3.601562 -6.800781 3.519531 -7.1875 Z M 3.519531 -7.1875 "/></g></g></g><g fill="#ffffff" fill-opacity="1"><g transform="translate(145.536019, 116.016409)"><g/></g></g></svg>