<svg xmlns="http://www.w3.org/2000/svg" xmlns:xlink="http://www.w3.org/1999/xlink" width="321" zoomAndPan="magnify" viewBox="0 0 240.75 141.750002" height="188" preserveAspectRatio="xMidYMid meet" version="1.0"><defs><g/><clipPath id="c4ff96fb13"><path d="M 0.0859375 0 L 240.414062 0 L 240.414062 141.5 L 0.0859375 141.5 Z M 0.0859375 0 " clip-rule="nonzero"/></clipPath></defs><g clip-path="url(#c4ff96fb13)"><path fill="#ffffff" d="M 0.0859375 0 L 240.664062 0 L 240.664062 141.648438 L 0.0859375 141.648438 Z M 0.0859375 0 " fill-opacity="1" fill-rule="nonzero"/><path fill="#ffffff" d="M 0.0859375 0 L 240.664062 0 L 240.664062 141.648438 L 0.0859375 141.648438 Z M 0.0859375 0 " fill-opacity="1" fill-rule="nonzero"/></g><g fill="#000000" fill-opacity="1"><g transform="translate(110.138523, 104.32085)"><g><path d="M 9 0 L 9 -66.203125 L 49.09375 -66.203125 L 48.09375 -59.5 L 29.5 -62.59375 C 26.226562 -62.59375 22.628906 -62.03125 18.703125 -60.90625 L 18.703125 -36.59375 L 40.90625 -36.59375 L 40.90625 -32.796875 L 18.703125 -32.796875 L 18.703125 -3.59375 L 49.703125 -6.703125 L 48.703125 0 Z M 9 0 "/></g></g></g><g fill="#000000" fill-opacity="1"><g transform="translate(138.071479, 39.516521)"><g><path d="M -18.984375 0 L -8.90625 0 L -8.90625 65.46875 L -18.984375 65.46875 L -18.984375 33.234375 L -49.546875 65.46875 L -56.078125 65.46875 L -25.125 35.015625 L -60.234375 0 L -47.578125 -1.28125 L -18.984375 32.25 Z M -18.984375 0 "/></g></g></g><g fill="#000000" fill-opacity="1"><g transform="translate(119.009507, 101.504811)"><g><path d="M 8.875 -14.921875 L 8.875 0 L 4.25 0 L 4.25 -31.265625 L 14.453125 -31.265625 C 17.628906 -31.265625 20.234375 -30.554688 22.265625 -29.140625 C 24.296875 -27.722656 25.3125 -25.859375 25.3125 -23.546875 C 25.3125 -21.234375 24.5 -19.40625 22.875 -18.0625 C 21.257812 -16.726562 19.066406 -15.804688 16.296875 -15.296875 L 28.953125 0 L 23.46875 0.65625 L 12.515625 -14.921875 Z M 8.875 -16.34375 L 11.90625 -16.34375 C 17.570312 -16.34375 20.40625 -18.578125 20.40625 -23.046875 C 20.40625 -23.804688 20.21875 -24.65625 19.84375 -25.59375 C 19.113281 -27.582031 17.566406 -28.890625 15.203125 -29.515625 C 13.066406 -29.515625 10.957031 -29.25 8.875 -28.71875 Z M 8.875 -16.34375 "/></g></g></g><g fill="#000000" fill-opacity="1"><g transform="translate(112.658301, 34.683751)"><g><path d="M 7.65625 -0.4375 C 6.707031 -1.394531 6.234375 -2.554688 6.234375 -3.921875 C 6.234375 -5.285156 6.707031 -6.457031 7.65625 -7.4375 C 8.601562 -8.414062 9.757812 -8.90625 11.125 -8.90625 C 12.488281 -8.90625 13.660156 -8.414062 14.640625 -7.4375 C 15.617188 -6.457031 16.109375 -5.285156 16.109375 -3.921875 C 16.109375 -2.554688 15.617188 -1.394531 14.640625 -0.4375 C 13.660156 0.507812 12.488281 0.984375 11.125 0.984375 C 9.757812 0.984375 8.601562 0.507812 7.65625 -0.4375 Z M 7.65625 -0.4375 "/></g></g></g><path stroke-linecap="butt" transform="matrix(0.000000000000000046, -0.750486, 0.749457, 0.000000000000000046, 94.181375, 94.385016)" fill="none" stroke-linejoin="miter" d="M -0.00226888 1.999198 L 56.924417 1.999198 " stroke="#000000" stroke-width="4" stroke-opacity="1" stroke-miterlimit="4"/></svg>