<svg xmlns="http://www.w3.org/2000/svg" xmlns:xlink="http://www.w3.org/1999/xlink" width="500" zoomAndPan="magnify" viewBox="0 0 375 374.999991" height="500" preserveAspectRatio="xMidYMid meet" version="1.0"><defs><clipPath id="f7b09aa309"><path d="M 0 0 L 370.5 0 L 370.5 370.5 L 0 370.5 Z M 0 0 " clip-rule="nonzero"/></clipPath></defs><g clip-path="url(#f7b09aa309)"><path fill="#000000" d="M 277.582031 0 L 92.625 0 C 41.753906 0 0 41.753906 0 92.917969 L 0 277.875 C 0 328.746094 41.753906 370.5 92.625 370.5 L 277.582031 370.5 C 328.746094 370.5 370.5 328.746094 370.5 277.582031 L 370.5 92.917969 C 370.5 41.753906 328.746094 0 277.582031 0 Z M 234.945312 185.25 L 199.953125 185.25 L 199.953125 299.929688 L 155.84375 299.929688 L 155.84375 185.25 L 132.320312 185.25 L 132.320312 138.203125 L 152.90625 138.203125 L 152.90625 118.207031 C 152.90625 99.386719 162.3125 69.6875 202.011719 69.6875 L 238.179688 69.6875 L 238.179688 108.796875 L 212.597656 108.796875 C 208.480469 108.796875 202.894531 111.445312 202.894531 120.558594 L 202.894531 138.203125 L 239.0625 138.203125 Z M 234.945312 185.25 " fill-opacity="1" fill-rule="nonzero"/></g></svg>